<svg version="1.1" xmlns="http://www.w3.org/2000/svg" xmlns:xlink="http://www.w3.org/1999/xlink" width="34.28667" height="34.78445" viewBox="0,0,34.28667,34.78445"><g transform="translate(-222.85666,-162.60778)"><g data-paper-data="{&quot;isPaintingLayer&quot;:true}" fill-rule="nonzero" stroke-width="0" stroke-linecap="butt" stroke-linejoin="miter" stroke-miterlimit="10" stroke-dasharray="" stroke-dashoffset="0" style="mix-blend-mode: normal"><g><path d="M246.33756,192.5512l-8.66057,3.04543l-4.52519,-5.96878l5.65583,-4.42389l-13.15067,-0.32309l-0.97061,-9.03101l14.09533,-0.20184l-6.01154,-5.74816l4.78063,-5.71638l5.60914,1.26968l12.367,12.25924l0.25626,4.82551z" data-paper-data="{&quot;index&quot;:null}" fill="#ffffff" stroke="none"/><path d="M239.88816,194.09854c-1.42991,0.64362 -2.48156,-0.62043 -3.24717,-1.55092c-0.7925,-0.96317 -2.15932,-3.61308 -2.15932,-3.61308c0,0 5.64594,-2.53307 5.05994,-3.78719c-0.28991,-0.62043 -7.09431,-0.59252 -11.44766,-0.82363c-1.22723,-0.06515 -2.17561,-2.72735 -2.22731,-3.91687c-0.131,-3.01408 0.523,-3.92188 2.00922,-4.13182c1.79257,-0.25322 11.7811,0.88285 12.35862,-0.07929c0.35467,-0.59086 -6.2307,-6.11286 -6.2307,-6.11286c0,0 2.27578,-2.55571 3.26515,-3.37102c0.77472,-0.63841 1.93151,-1.24708 2.6019,-0.94202c1.00636,0.45795 14.58767,8.46436 14.43453,14.78993c-0.15009,6.19937 -13.27402,13.0242 -14.41718,13.53875z" data-paper-data="{&quot;index&quot;:null}" fill="#be7683" stroke="#ffffff"/><path d="M239.20664,197.25667c-1.76108,0.78416 -3.18024,-2.04067 -4.12331,-3.17467c-0.97619,-1.17383 -3.62496,-4.67264 -2.55722,-5.62033c1.91151,-1.69661 2.72334,-2.35859 2.72334,-2.35859c0,0 -3.27668,0.20855 -8.64035,0.10748c-2.65864,-0.05011 -3.54218,-3.48903 -3.66822,-4.93451c-0.35378,-4.05766 0.41249,-6.57651 2.19761,-7.04527c2.05246,-0.53898 10.6798,-0.25018 10.6798,-0.25018c0,0 -2.68517,-1.93869 -3.80714,-3.8336c-1.04632,-1.76713 2.92593,-5.30175 4.14439,-6.29517c0.9541,-0.77789 2.69146,-1.51676 3.51717,-1.14494c1.23955,0.55818 17.65692,10.1176 17.46903,17.82592c-0.18415,7.55454 -16.52717,16.09693 -17.93508,16.72383zM255.03636,180.54729c0.03351,-7.09874 -14.66952,-15.9176 -15.65137,-15.88789c-1.8608,0.0563 -5.59159,4.70769 -5.59159,4.70769c0,0 6.89282,5.77284 6.07936,6.33282c-1.25731,0.8655 -11.62951,0.16023 -13.48819,0.3761c-1.98396,0.23043 -1.29525,7.29248 0.08268,8.15522c0.94755,0.59327 12.68767,-0.04139 13.2993,0.75317c0.88574,1.15068 -5.94952,4.54194 -5.94952,4.54194c0,0 3.43954,5.28842 4.74928,5.63327c1.42621,0.37552 16.43825,-7.87352 16.47006,-14.61233z" data-paper-data="{&quot;index&quot;:null}" fill="#201e31" stroke="#1542b7"/></g></g></g></svg>