<svg version="1.1" xmlns="http://www.w3.org/2000/svg" xmlns:xlink="http://www.w3.org/1999/xlink" width="68.27692" height="68.27692" viewBox="0,0,68.27692,68.27692"><defs><radialGradient cx="240" cy="180" r="34.13846" gradientUnits="userSpaceOnUse" id="color-1"><stop offset="0" stop-color="#1fffff"/><stop offset="1" stop-color="#1fffff" stop-opacity="0"/></radialGradient></defs><g transform="translate(-205.86154,-145.86154)"><g data-paper-data="{&quot;isPaintingLayer&quot;:true}" fill-rule="nonzero" stroke-width="0" stroke-linecap="butt" stroke-linejoin="miter" stroke-miterlimit="10" stroke-dasharray="" stroke-dashoffset="0" style="mix-blend-mode: normal"><path d="M225.72906,187.17548l-3.44114,-9.85123l6.7951,-5.12945l5.01506,6.43914l0.39829,-14.94693l10.26739,-1.08193l0.19614,16.02194l6.54785,-6.81943l6.48623,5.44741l-1.45643,6.37262l-13.96367,14.02798l-5.48552,0.27989z" data-paper-data="{&quot;index&quot;:null}" fill="#ffffff" stroke="none"/><path d="M274.13846,180c0,18.85415 -15.28431,34.13846 -34.13846,34.13846c-18.85414,0 -34.13846,-15.28431 -34.13846,-34.13846c0,-18.85415 15.28432,-34.13846 34.13846,-34.13846c18.85415,0 34.13846,15.28431 34.13846,34.13846z" data-paper-data="{&quot;index&quot;:null}" fill="url(#color-1)" stroke="none"/><path d="M223.9855,179.84112c-0.72819,-1.62682 0.71107,-2.8192 1.77052,-3.68724c1.09666,-0.89853 4.1119,-2.44586 4.1119,-2.44586c0,0 2.86588,6.42345 4.29277,5.76032c0.70589,-0.32806 0.69025,-8.06236 0.96322,-13.01004c0.07695,-1.39479 3.10518,-2.46648 4.45737,-2.52243c3.42627,-0.14177 4.45656,0.60374 4.69169,2.29354c0.28358,2.03813 -1.03132,13.38889 0.06094,14.04761c0.67076,0.40452 6.96288,-7.06769 6.96288,-7.06769c0,0 2.89957,2.59281 3.82395,3.7193c0.72383,0.88209 1.41294,2.1984 1.06461,2.95967c-0.52289,1.14281 -9.65548,16.56108 -16.84507,16.37207c-7.04616,-0.18524 -14.7726,-15.11867 -15.35475,-16.41926z" data-paper-data="{&quot;index&quot;:null}" fill="#ffffff" stroke="#ffffff"/><path d="M220.39743,179.05901c-0.88715,-2.00358 2.32704,-3.61001 3.61822,-4.67926c1.33653,-1.10681 5.31973,-4.10926 6.3944,-2.89338c1.92393,2.17672 2.67445,3.10105 2.67445,3.10105c0,0 -0.22932,-3.72492 -0.10177,-9.82131c0.06322,-3.02183 3.97418,-4.01798 5.61747,-4.15781c4.61297,-0.39255 7.47421,0.48438 8.00281,2.51455c0.60779,2.3342 0.25914,12.13979 0.25914,12.13979c0,0 2.20995,-3.04751 4.36644,-4.31832c2.01108,-1.18513 6.01933,3.33827 7.14562,4.72558c0.88193,1.08631 1.71766,3.06283 1.29308,4.0005c-0.63737,1.40761 -11.54186,20.04584 -20.30309,19.81407c-8.58643,-0.22716 -18.25754,-18.82362 -18.96678,-20.42541zM239.35274,197.09133c8.06871,0.05487 18.12738,-16.63652 18.09594,-17.7526c-0.0596,-2.11522 -5.3378,-6.36679 -5.3378,-6.36679c0,0 -6.57799,7.82109 -7.21256,6.89514c-0.98082,-1.43116 -0.15467,-13.21906 -0.39564,-15.33224c-0.25722,-2.25562 -8.28594,-1.48947 -9.26982,0.07472c-0.67658,1.07563 0.01709,14.42154 -0.88751,15.11486c-1.31001,1.00406 -5.14855,-6.77325 -5.14855,-6.77325c0,0 -6.01919,3.89705 -6.41426,5.38496c-0.4302,1.62022 8.91061,18.70312 16.5702,18.75521z" data-paper-data="{&quot;index&quot;:null}" fill="#2370d0" stroke="#1542b7"/></g></g></svg>