<svg version="1.1" xmlns="http://www.w3.org/2000/svg" xmlns:xlink="http://www.w3.org/1999/xlink" width="70.82614" height="70.82614" viewBox="0,0,70.82614,70.82614"><defs><radialGradient cx="240" cy="180" r="35.41307" gradientUnits="userSpaceOnUse" id="color-1"><stop offset="0" stop-color="#00e8ff"/><stop offset="1" stop-color="#00e8ff" stop-opacity="0"/></radialGradient></defs><g transform="translate(-204.58693,-144.58693)"><g data-paper-data="{&quot;isPaintingLayer&quot;:true}" fill-rule="nonzero" stroke-width="0" stroke-linecap="butt" stroke-linejoin="miter" stroke-miterlimit="10" stroke-dasharray="" stroke-dashoffset="0" style="mix-blend-mode: normal"><path d="M225.18274,187.4416l-3.56962,-10.21904l7.04881,-5.32097l5.2023,6.67956l0.41316,-15.505l10.65074,-1.12233l0.20346,16.62014l6.79232,-7.07404l6.7284,5.6508l-1.51081,6.61055l-14.48502,14.55174l-5.69033,0.29034z" data-paper-data="{&quot;index&quot;:null}" fill="#ffffff" stroke="none"/><path d="M275.41307,180c0,19.5581 -15.85497,35.41307 -35.41307,35.41307c-19.55809,0 -35.41307,-15.85497 -35.41307,-35.41307c0,-19.5581 15.85498,-35.41307 35.41307,-35.41307c19.5581,0 35.41307,15.85497 35.41307,35.41307z" fill="url(#color-1)" stroke="none"/><path d="M223.35324,179.74131c-0.75538,-1.68756 0.73762,-2.92446 1.83663,-3.82491c1.13761,-0.93208 4.26542,-2.53718 4.26542,-2.53718c0,0 2.97288,6.66328 4.45305,5.97539c0.73225,-0.34031 0.71602,-8.36338 0.99918,-13.49579c0.07982,-1.44687 3.22112,-2.55857 4.62379,-2.61661c3.5542,-0.14706 4.62295,0.62628 4.86686,2.37917c0.29417,2.11423 -1.06983,13.88878 0.06322,14.5721c0.6958,0.41962 7.22285,-7.33157 7.22285,-7.33157c0,0 3.00783,2.68962 3.96672,3.85817c0.75086,0.91502 1.46569,2.28048 1.10436,3.07017c-0.54241,1.18548 -10.01598,17.17941 -17.47401,16.98335c-7.30924,-0.19216 -15.32416,-15.68315 -15.92804,-17.0323z" data-paper-data="{&quot;index&quot;:null}" fill="#b1ffff" stroke="#ffffff"/><path d="M219.65204,179.02209c-0.92027,-2.07839 2.41392,-3.7448 3.75331,-4.85397c1.38643,-1.14813 5.51835,-4.26269 6.63314,-3.00141c1.99576,2.25799 2.7743,3.21683 2.7743,3.21683c0,0 -0.23788,-3.864 -0.10557,-10.188c0.06558,-3.13465 4.12256,-4.168 5.82721,-4.31305c4.7852,-0.40721 7.75327,0.50247 8.30161,2.60843c0.63048,2.42135 0.26882,12.59305 0.26882,12.59305c0,0 2.29246,-3.16129 4.52947,-4.47955c2.08617,-1.22938 6.24407,3.46291 7.41241,4.90202c0.91486,1.12687 1.78179,3.17719 1.34136,4.14986c-0.66117,1.46017 -11.97279,20.79428 -21.06114,20.55386c-8.90702,-0.23564 -18.93921,-19.52643 -19.67493,-21.18802zM239.31508,197.72768c8.36997,0.05692 18.80419,-17.25767 18.77158,-18.41542c-0.06183,-2.19419 -5.53709,-6.6045 -5.53709,-6.6045c0,0 -6.82359,8.1131 -7.48185,7.15258c-1.01744,-1.48459 -0.16044,-13.71261 -0.41041,-15.90469c-0.26682,-2.33984 -8.59531,-1.54508 -9.61592,0.07751c-0.70184,1.11579 0.01773,14.95999 -0.92065,15.6792c-1.35892,1.04155 -5.34078,-7.02614 -5.34078,-7.02614c0,0 -6.24393,4.04255 -6.65375,5.58602c-0.44626,1.68071 9.2433,19.40143 17.18887,19.45546z" data-paper-data="{&quot;index&quot;:null}" fill="#184b69" stroke="#1542b7"/></g></g></svg>