<svg version="1.1" xmlns="http://www.w3.org/2000/svg" xmlns:xlink="http://www.w3.org/1999/xlink" width="66.97144" height="66.97144" viewBox="0,0,66.97144,66.97144"><defs><radialGradient cx="240" cy="180" r="33.48572" gradientUnits="userSpaceOnUse" id="color-1"><stop offset="0" stop-color="#00ecff"/><stop offset="1" stop-color="#00ecff" stop-opacity="0"/></radialGradient></defs><g transform="translate(-206.51428,-146.51428)"><g data-paper-data="{&quot;isPaintingLayer&quot;:true}" fill-rule="nonzero" stroke-width="0" stroke-linecap="butt" stroke-linejoin="miter" stroke-miterlimit="10" stroke-dasharray="" stroke-dashoffset="0" style="mix-blend-mode: normal"><g><path d="M273.48572,180c0,18.49365 -14.99207,33.48572 -33.48572,33.48572c-18.49364,0 -33.48572,-14.99207 -33.48572,-33.48572c0,-18.49365 14.99208,-33.48572 33.48572,-33.48572c18.49365,0 33.48572,14.99207 33.48572,33.48572z" data-paper-data="{&quot;index&quot;:null}" fill="url(#color-1)" stroke="none"/><path d="M225.98917,187.03659l-3.37534,-9.66287l6.66518,-5.03138l4.91917,6.31603l0.39067,-14.66114l10.07108,-1.06125l0.19239,15.71559l6.42265,-6.68904l6.36221,5.34326l-1.42858,6.25077l-11.32733,13.03865l-9.60425,0.17152z" data-paper-data="{&quot;index&quot;:null}" fill="#ffffff" stroke="none"/><path d="M224.27894,179.84247c-0.71427,-1.59571 0.69748,-2.7653 1.73667,-3.61674c1.0757,-0.88135 4.03328,-2.39909 4.03328,-2.39909c0,0 2.81108,6.30063 4.21069,5.65018c0.6924,-0.32179 0.67705,-7.9082 0.9448,-12.76128c0.07548,-1.36812 3.04581,-2.41932 4.37214,-2.4742c3.36076,-0.13906 4.37135,0.59219 4.60198,2.24968c0.27816,1.99916 -1.0116,13.13289 0.05978,13.77902c0.65793,0.39678 6.82975,-6.93255 6.82975,-6.93255c0,0 2.84413,2.54324 3.75083,3.64819c0.70999,0.86522 1.38592,2.15637 1.04426,2.90308c-0.51289,1.12096 -9.47086,16.24442 -16.52299,16.05903c-6.91144,-0.1817 -14.49015,-14.8296 -15.06116,-16.10532z" data-paper-data="{&quot;index&quot;:null}" fill="#88ffff" stroke="#ffffff"/><path d="M220.75947,179.07531c-0.87018,-1.96527 2.28254,-3.54099 3.54904,-4.58979c1.31097,-1.08564 5.21801,-4.03069 6.27213,-2.83806c1.88714,2.1351 2.62331,3.04175 2.62331,3.04175c0,0 -0.22493,-3.6537 -0.09982,-9.63352c0.06201,-2.96405 3.89819,-3.94116 5.51007,-4.07831c4.52477,-0.38505 7.3313,0.47512 7.8498,2.46647c0.59617,2.28957 0.25419,11.90768 0.25419,11.90768c0,0 2.16769,-2.98924 4.28295,-4.23575c1.97263,-1.16247 5.90424,3.27444 7.00899,4.63523c0.86507,1.06554 1.68482,3.00427 1.26836,3.924c-0.62519,1.3807 -11.32117,19.66255 -19.91489,19.43522c-8.42226,-0.22282 -17.90845,-18.46371 -18.60413,-20.03487zM239.35236,196.76285c7.91444,0.05382 17.78078,-16.31842 17.74994,-17.41316c-0.05846,-2.07477 -5.23573,-6.24505 -5.23573,-6.24505c0,0 -6.45222,7.67155 -7.07465,6.7633c-0.96207,-1.40379 -0.15171,-12.9663 -0.38807,-15.03908c-0.2523,-2.21249 -8.12751,-1.46099 -9.09258,0.07329c-0.66364,1.05506 0.01677,14.1458 -0.87054,14.82586c-1.28496,0.98486 -5.05011,-6.64374 -5.05011,-6.64374c0,0 -5.90411,3.82253 -6.29162,5.282c-0.42197,1.58924 8.74023,18.34551 16.25337,18.3966z" data-paper-data="{&quot;index&quot;:null}" fill="#0f3a4f" stroke="#1542b7"/></g></g></g></svg>