<svg version="1.1" xmlns="http://www.w3.org/2000/svg" xmlns:xlink="http://www.w3.org/1999/xlink" width="36.17247" height="35.65247" viewBox="0,0,36.17247,35.65247"><g transform="translate(-221.91376,-162.17376)"><g data-paper-data="{&quot;isPaintingLayer&quot;:true}" fill-rule="nonzero" stroke-width="0" stroke-linecap="butt" stroke-linejoin="miter" stroke-miterlimit="10" stroke-dasharray="" stroke-dashoffset="0" style="mix-blend-mode: normal"><g><path d="M226.89443,186.50308l-3.10678,-9.02837l6.23921,-4.66454l4.56138,5.91303l0.42788,-13.67458l9.39913,-0.94636l0.11144,14.66071l6.02016,-6.2119l5.9117,5.01185l-1.35967,5.8247l-12.83615,12.77616l-5.02038,0.2328z" data-paper-data="{&quot;index&quot;:null}" fill="#ffffff" stroke="none"/><path d="M225.33022,179.78483c-0.65938,-1.49162 0.66259,-2.57651 1.63566,-3.36627c1.00725,-0.81748 3.77272,-2.22048 3.77272,-2.22048c0,0 2.59498,5.88955 3.90338,5.28885c0.64728,-0.29717 0.66579,-7.37403 0.93656,-11.89994c0.07633,-1.27589 2.85168,-2.24361 4.08915,-2.28907c3.1356,-0.11518 4.07514,0.57133 4.2831,2.11848c0.25084,1.86606 -1.00049,12.2463 -0.00388,12.85365c0.61202,0.37298 6.40097,-6.43729 6.40097,-6.43729c0,0 2.64207,2.3847 3.48309,3.41935c0.65855,0.81017 1.28349,2.01751 0.96153,2.71258c-0.4833,1.04343 -8.90496,15.1122 -15.48255,14.90875c-6.44636,-0.1994 -13.45258,-13.89612 -13.97972,-15.08863z" data-paper-data="{&quot;index&quot;:null}" fill="#6dc0c7" stroke="#ffffff"/><path d="M222.05049,179.05398c-0.80323,-1.83703 2.14454,-3.29324 3.3305,-4.26611c1.22761,-1.00705 4.88493,-3.73735 5.86308,-2.62028c1.75113,1.99984 2.43392,2.84877 2.43392,2.84877c0,0 -0.194,-3.40924 -0.05142,-8.98681c0.07068,-2.76467 3.65338,-3.65953 5.15757,-3.7805c4.22248,-0.33959 6.83676,0.47493 7.31181,2.33476c0.54621,2.13835 0.18557,11.10887 0.18557,11.10887c0,0 2.03501,-2.77905 4.01358,-3.93268c1.84514,-1.07585 5.49345,3.08004 6.5181,4.35419c0.80234,0.99771 1.55863,2.80974 1.16617,3.66589c-0.58917,1.28524 -10.64578,18.29271 -18.66121,18.04344c-7.85553,-0.24429 -16.62552,-17.3009 -17.26767,-18.76953zM239.31784,195.63381c7.38254,0.08445 16.65697,-15.14526 16.63294,-16.16659c-0.04555,-1.93565 -4.85699,-5.8482 -4.85699,-5.8482c0,0 -6.05198,7.12828 -6.62868,6.27835c-0.89136,-1.31366 -0.08539,-12.09594 -0.29691,-14.0305c-0.22578,-2.06496 -7.57521,-1.39802 -8.4821,0.02901c-0.62362,0.98132 -0.0456,13.19561 -0.87622,13.82616c-1.2029,0.91314 -4.6821,-6.2193 -4.6821,-6.2193c0,0 -5.52404,3.54021 -5.89184,4.89995c-0.4005,1.48065 8.0737,17.15097 15.08191,17.23115z" data-paper-data="{&quot;index&quot;:null}" fill="#201e31" stroke="#1542b7"/></g></g></g></svg>