<svg version="1.1" xmlns="http://www.w3.org/2000/svg" xmlns:xlink="http://www.w3.org/1999/xlink" width="33.74469" height="33.26293" viewBox="0,0,33.74469,33.26293"><g transform="translate(-223.12765,-163.36854)"><g data-paper-data="{&quot;isPaintingLayer&quot;:true}" fill-rule="nonzero" stroke-width="0" stroke-linecap="butt" stroke-linejoin="miter" stroke-miterlimit="10" stroke-dasharray="" stroke-dashoffset="0" style="mix-blend-mode: normal"><g><path d="M227.84367,186.1803l-2.97651,-8.39354l5.77852,-4.40506l4.306,5.47518l0.27965,-12.75788l8.7582,-0.96475l0.23199,13.67293l5.56069,-5.84635l5.55756,4.62287l-1.21728,5.44452l-11.86056,12.0283l-4.68042,0.26098z" data-paper-data="{&quot;index&quot;:null}" fill="#ffffff" stroke="none"/><path d="M226.32608,179.9279c-0.62802,-1.38547 0.59549,-2.40887 1.49616,-3.15397c0.93231,-0.77125 3.49938,-2.10397 3.49938,-2.10397c0,0 2.47175,5.47046 3.68683,4.89876c0.60112,-0.28283 0.55658,-6.8835 0.76959,-11.10713c0.06005,-1.19067 2.64014,-2.11749 3.79392,-2.1707c2.92354,-0.13481 3.80583,0.49729 4.01331,1.93848c0.25026,1.73826 -0.82618,11.43074 0.10864,11.9885c0.57408,0.34253 5.91389,-6.0599 5.91389,-6.0599c0,0 2.48506,2.20111 3.2785,3.15877c0.6213,0.74989 1.21472,1.8705 0.9205,2.5216c-0.44166,0.97742 -8.17358,14.17277 -14.31022,14.04046c-6.0142,-0.12967 -12.66844,-12.84327 -13.17052,-13.95091z" data-paper-data="{&quot;index&quot;:null}" fill="#51b5bd" stroke="#ffffff"/><path d="M223.26073,179.2749c-0.7652,-1.70636 1.97143,-3.09031 3.06906,-4.00805c1.13618,-0.94999 4.52349,-3.52844 5.44556,-2.49511c1.65072,1.84994 2.29498,2.63577 2.29498,2.63577c0,0 -0.21072,-3.17807 -0.12645,-8.38146c0.04177,-2.5792 3.37551,-3.44512 4.7774,-3.57109c3.93529,-0.3536 6.38073,0.38326 6.84004,2.11375c0.52812,1.98964 0.2701,10.35952 0.2701,10.35952c0,0 1.87376,-2.60977 3.70907,-3.70302c1.71155,-1.01955 5.15059,2.82474 6.11739,4.00418c0.75705,0.92354 1.47826,2.60701 1.11969,3.40896c-0.53828,1.20387 -9.76944,17.1544 -17.24753,16.99191c-7.32891,-0.15924 -15.65756,-15.99117 -16.26931,-17.35533zM239.51061,194.58792c6.88636,0.01429 15.40352,-14.27131 15.37218,-15.22369c-0.05938,-1.80496 -4.58115,-5.41214 -4.58115,-5.41214c0,0 -5.58237,6.70133 -6.12767,5.91366c-0.84283,-1.21745 -0.18528,-11.28102 -0.39947,-13.08351c-0.22863,-1.92399 -7.07754,-1.23776 -7.91092,0.10114c-0.57307,0.92071 0.07272,12.30781 -0.69649,12.90317c-1.11396,0.86219 -4.42127,-5.75978 -4.42127,-5.75978c0,0 -5.1213,3.35016 -5.45246,4.62159c-0.36061,1.38449 7.68005,15.92603 14.21724,15.9396z" data-paper-data="{&quot;index&quot;:null}" fill="#201e31" stroke="#1542b7"/></g></g></g></svg>