<svg version="1.1" xmlns="http://www.w3.org/2000/svg" xmlns:xlink="http://www.w3.org/1999/xlink" width="37.08008" height="36.54702" viewBox="0,0,37.08008,36.54702"><g transform="translate(-221.44132,-161.72509)"><g data-paper-data="{&quot;isPaintingLayer&quot;:true}" fill-rule="nonzero" stroke-width="0" stroke-linecap="butt" stroke-linejoin="miter" stroke-miterlimit="10" stroke-dasharray="" stroke-dashoffset="0" style="mix-blend-mode: normal"><path d="M253.41578,173.33235l3.18473,9.2549l-6.39576,4.78158l-4.67583,-6.06139l-0.43862,14.01768l-9.63496,0.9701l-0.11424,-15.02856l-6.17121,6.36776l-6.06003,-5.1376l1.39378,-5.97085l13.15822,-13.09672l5.14634,-0.23864z" data-paper-data="{&quot;index&quot;:null}" fill="#ffffff" stroke="none"/><path d="M255.01923,180.21917c0.67592,1.52905 -0.67921,2.64116 -1.6767,3.45073c-1.03252,0.83799 -3.86738,2.27619 -3.86738,2.27619c0,0 -2.66009,-6.03732 -4.00132,-5.42155c-0.66352,0.30463 -0.6825,7.55905 -0.96006,12.19852c-0.07825,1.3079 -2.92323,2.2999 -4.19175,2.3465c-3.21427,0.11807 -4.17739,-0.58567 -4.39057,-2.17163c-0.25713,-1.91288 1.02559,-12.55357 0.00398,-13.17616c-0.62738,-0.38234 -6.56157,6.59881 -6.56157,6.59881c0,0 -2.70836,-2.44453 -3.57048,-3.50514c-0.67507,-0.8305 -1.31569,-2.06813 -0.98566,-2.78064c0.49543,-1.06961 9.12839,-15.49138 15.87102,-15.28282c6.6081,0.2044 13.79011,14.24478 14.33048,15.46721z" data-paper-data="{&quot;index&quot;:null}" fill="#87a3ad" stroke="#ffffff"/><path d="M258.38125,180.96836c0.82338,1.88312 -2.19835,3.37587 -3.41406,4.37315c-1.25841,1.03232 -5.0075,3.83112 -6.01019,2.68602c-1.79507,-2.05002 -2.49499,-2.92025 -2.49499,-2.92025c0,0 0.19887,3.49478 0.05271,9.2123c-0.07245,2.83404 -3.74505,3.75135 -5.28698,3.87536c-4.32842,0.34811 -7.0083,-0.48685 -7.49527,-2.39334c-0.55991,-2.192 -0.19023,-11.3876 -0.19023,-11.3876c0,0 -2.08607,2.84878 -4.11428,4.03135c-1.89144,1.10284 -5.63128,-3.15732 -6.68164,-4.46344c-0.82247,-1.02274 -1.59774,-2.88024 -1.19543,-3.75787c0.60395,-1.31749 10.91289,-18.75169 19.12943,-18.49616c8.05263,0.25042 17.04267,17.73499 17.70093,19.24047zM240.68066,163.97253c-7.56777,-0.08657 -17.07491,15.52526 -17.05027,16.57222c0.04669,1.98422 4.97886,5.99494 4.97886,5.99494c0,0 6.20383,-7.30713 6.795,-6.43588c0.91372,1.34662 0.08753,12.39944 0.30436,14.38253c0.23145,2.11677 7.76528,1.4331 8.69492,-0.02974c0.63927,-1.00594 0.04674,-13.5267 0.89821,-14.17307c1.23308,-0.93605 4.79958,6.37535 4.79958,6.37535c0,0 5.66264,-3.62904 6.03967,-5.02289c0.41055,-1.5178 -8.27627,-17.5813 -15.46033,-17.66349z" data-paper-data="{&quot;index&quot;:null}" fill="#000000" stroke="#1542b7"/></g></g></svg>