<svg version="1.1" xmlns="http://www.w3.org/2000/svg" xmlns:xlink="http://www.w3.org/1999/xlink" width="37.08345" height="36.55195" viewBox="0,0,37.08345,36.55195"><g transform="translate(-221.44527,-161.72232)"><g data-paper-data="{&quot;isPaintingLayer&quot;:true}" fill-rule="nonzero" stroke-width="0" stroke-linecap="butt" stroke-linejoin="miter" stroke-miterlimit="10" stroke-dasharray="" stroke-dashoffset="0" style="mix-blend-mode: normal"><path d="M253.38471,173.26961l3.22764,9.24002l-6.37351,4.8112l-4.7039,-6.03963l-0.37358,14.01957l-9.63036,1.0148l-0.18397,-15.02787l-6.1416,6.39632l-6.0838,-5.10943l1.36607,-5.97724l13.09731,-13.15763l5.14518,-0.26252z" data-paper-data="{&quot;index&quot;:null}" fill="#ffffff" stroke="none"/><path d="M255.02009,180.14891c0.68301,1.52589 -0.66695,2.64428 -1.66067,3.45847c-1.02862,0.84278 -3.85678,2.29411 -3.85678,2.29411c0,0 -2.68807,-6.02491 -4.02643,-5.40293c-0.6621,0.3077 -0.64742,7.56214 -0.90346,12.20285c-0.07218,1.30825 -2.91252,2.31345 -4.18082,2.36593c-3.21369,0.13298 -4.18006,-0.56628 -4.4006,-2.15124c-0.26599,-1.91167 0.96733,-12.5582 -0.05716,-13.17604c-0.62915,-0.37942 -6.53088,6.62919 -6.53088,6.62919c0,0 -2.71967,-2.43194 -3.5867,-3.48854c-0.67892,-0.82736 -1.32527,-2.062 -0.99855,-2.77604c0.49045,-1.0719 9.05642,-15.53357 15.79993,-15.35629c6.60899,0.17374 13.85606,14.18065 14.40209,15.40055z" data-paper-data="{&quot;index&quot;:null}" fill="#a5f5a0" stroke="#ffffff"/><path d="M258.38555,180.8825c0.83211,1.87927 -2.18266,3.38603 -3.39373,4.38894c-1.25361,1.03814 -4.98967,3.85431 -5.99766,2.71387c-1.80456,-2.04167 -2.50852,-2.90865 -2.50852,-2.90865c0,0 0.21509,3.49382 0.09545,9.21196c-0.0593,2.83434 -3.7276,3.76869 -5.26894,3.89985c-4.32676,0.36819 -7.01048,-0.45433 -7.50629,-2.35854c-0.57008,-2.18938 -0.24307,-11.38659 -0.24307,-11.38659c0,0 -2.07283,2.85843 -4.09553,4.0504c-1.8863,1.1116 -5.64587,-3.13116 -6.70228,-4.43239c-0.82721,-1.01891 -1.61109,-2.87279 -1.21285,-3.75229c0.59783,-1.32028 10.82576,-18.80212 19.04341,-18.58473c8.0537,0.21306 17.12477,17.65573 17.79001,19.15814zM240.6063,163.96898c-7.5681,-0.05146 -17.00269,15.60432 -16.9732,16.65116c0.0559,1.98398 5.00662,5.97177 5.00662,5.97177c0,0 6.16986,-7.33584 6.76506,-6.46734c0.91996,1.34237 0.14507,12.3989 0.37109,14.38097c0.24126,2.11567 7.77185,1.39706 8.69469,-0.07008c0.6346,-1.00889 -0.01603,-13.52677 0.83244,-14.17708c1.22873,-0.94177 4.82911,6.35301 4.82911,6.35301c0,0 5.64574,-3.65527 6.0163,-5.05086c0.40351,-1.51969 -8.35776,-17.54271 -15.54212,-17.59157z" data-paper-data="{&quot;index&quot;:null}" fill="#12fa05" stroke="#1542b7"/></g></g></svg>