<svg version="1.1" xmlns="http://www.w3.org/2000/svg" xmlns:xlink="http://www.w3.org/1999/xlink" width="33.73917" height="33.25416" viewBox="0,0,33.73917,33.25416"><g transform="translate(-223.13041,-163.37292)"><g data-paper-data="{&quot;isPaintingLayer&quot;:true}" fill-rule="nonzero" stroke-width="0" stroke-linecap="butt" stroke-linejoin="miter" stroke-miterlimit="10" stroke-dasharray="" stroke-dashoffset="0" style="mix-blend-mode: normal"><g data-paper-data="{&quot;index&quot;:null}"><path d="M252.22398,173.93436l2.89779,8.42104l-5.81951,4.35076l-4.25454,-5.51526l-0.3991,12.7547l-8.76685,0.8827l-0.10395,-13.6745l-5.61519,5.79403l-5.51403,-4.67471l1.26821,-5.43288l11.97267,-11.91672l4.68266,-0.21714z" data-paper-data="{&quot;index&quot;:null}" fill="#ffffff" stroke="none"/><path d="M253.68296,180.20069c0.61502,1.39129 -0.61802,2.40319 -1.52563,3.13982c-0.93949,0.76249 -3.51893,2.07111 -3.51893,2.07111c0,0 -2.42042,-5.49336 -3.6408,-4.93307c-0.60374,0.27719 -0.62101,6.87799 -0.87356,11.09944c-0.0712,1.19006 -2.65985,2.09268 -3.81408,2.13508c-2.92467,0.10743 -3.80101,-0.5329 -3.99498,-1.97597c-0.23397,-1.74053 0.93318,-11.4225 0.00362,-11.98899c-0.57085,-0.34789 -5.97037,6.00426 -5.97037,6.00426c0,0 -2.46434,-2.22428 -3.24878,-3.18933c-0.61425,-0.75567 -1.19715,-1.88179 -0.89685,-2.53011c0.45079,-0.97324 8.30593,-14.09562 14.44106,-13.90585c6.01272,0.18598 12.54763,12.96133 13.03931,14.07362z" data-paper-data="{&quot;index&quot;:null}" fill="#57bf6f" stroke="#ffffff"/><path d="M256.74206,180.88237c0.74919,1.71345 -2.00028,3.07171 -3.10645,3.97914c-1.14503,0.93931 -4.55633,3.48593 -5.46868,2.44401c-1.63333,-1.86532 -2.2702,-2.65714 -2.2702,-2.65714c0,0 0.18095,3.1799 0.04796,8.38228c-0.06592,2.5787 -3.40762,3.41336 -4.81063,3.5262c-3.93843,0.31674 -6.37686,-0.44299 -6.81995,-2.1777c-0.50947,-1.9945 -0.17309,-10.36159 -0.17309,-10.36159c0,0 -1.89811,2.59211 -3.74358,3.66813c-1.72102,1.00348 -5.12391,-2.87284 -6.07963,-4.06128c-0.74837,-0.93059 -1.45378,-2.62074 -1.08772,-3.41929c0.54953,-1.19878 9.92964,-17.06217 17.40588,-16.82967c7.3271,0.22786 15.50714,16.13708 16.10609,17.50691zM240.63628,165.41786c-6.88592,-0.07877 -15.53647,14.12645 -15.51405,15.07908c0.04248,1.80544 4.53027,5.4548 4.53027,5.4548c0,0 5.64487,-6.64877 6.18277,-5.85602c0.83139,1.22529 0.07964,11.28226 0.27694,13.08668c0.2106,1.92605 7.06564,1.30398 7.91152,-0.02706c0.58167,-0.9153 0.04253,-12.30795 0.81728,-12.89608c1.12198,-0.85172 4.36714,5.80093 4.36714,5.80093c0,0 5.15244,-3.30206 5.4955,-4.57033c0.37356,-1.38105 -7.53059,-15.99724 -14.06737,-16.07202z" data-paper-data="{&quot;index&quot;:null}" fill="#201e31" stroke="#1542b7"/></g></g></g></svg>