<svg version="1.1" xmlns="http://www.w3.org/2000/svg" xmlns:xlink="http://www.w3.org/1999/xlink" width="68.27692" height="68.27692" viewBox="0,0,68.27692,68.27692"><defs><radialGradient cx="240" cy="180" r="34.13846" gradientUnits="userSpaceOnUse" id="color-1"><stop offset="0" stop-color="#ff82ff"/><stop offset="1" stop-color="#ff82ff" stop-opacity="0"/></radialGradient></defs><g transform="translate(-205.86154,-145.86154)"><g data-paper-data="{&quot;isPaintingLayer&quot;:true}" fill-rule="nonzero" stroke-width="0" stroke-linecap="butt" stroke-linejoin="miter" stroke-miterlimit="10" stroke-dasharray="" stroke-dashoffset="0" style="mix-blend-mode: normal"><path d="M232.41626,164.9808l10.36355,-3.64427l5.415,7.14245l-6.76796,5.29378l15.73654,0.38661l1.16147,10.80682l-16.86695,0.24153l7.19361,6.87846l-5.72067,6.84041l-6.71209,-1.51933l-14.79878,-14.66983l-0.30665,-5.77437z" data-paper-data="{&quot;index&quot;:null}" fill="#ffffff" stroke="none"/><path d="M205.86154,180c0,-18.85415 15.28431,-34.13846 34.13846,-34.13846c18.85414,0 34.13846,15.28431 34.13846,34.13846c0,18.85415 -15.28432,34.13846 -34.13846,34.13846c-18.85415,0 -34.13846,-15.28431 -34.13846,-34.13846z" fill="url(#color-1)" stroke="none"/><path d="M240.13384,163.12921c1.71108,-0.77018 2.96953,0.74244 3.88568,1.85588c0.94834,1.15255 2.58392,4.32353 2.58392,4.32353c0,0 -6.75613,3.03116 -6.05489,4.53189c0.34692,0.74244 8.4893,0.70902 13.69866,0.98559c1.46855,0.07796 2.60341,3.26364 2.66528,4.68706c0.15676,3.60675 -0.62584,4.69306 -2.4043,4.94428c-2.14505,0.30302 -14.09766,-1.05646 -14.78874,0.09488c-0.42441,0.70704 7.45587,7.31485 7.45587,7.31485c0,0 -2.72328,3.05825 -3.9072,4.03387c-0.92705,0.76395 -2.31131,1.4923 -3.11352,1.12725c-1.20425,-0.548 -17.45611,-10.12874 -17.27287,-17.69814c0.17959,-7.41838 15.88414,-15.58522 17.25209,-16.20094z" data-paper-data="{&quot;index&quot;:null}" fill="#ffffff" stroke="#ffffff"/><path d="M240.94936,159.35008c2.10737,-0.93836 3.80558,2.44194 4.9341,3.79892c1.16814,1.40465 4.33774,5.59143 3.06005,6.72548c-2.28738,2.03022 -3.25884,2.82237 -3.25884,2.82237c0,0 3.92099,-0.24956 10.33934,-0.12862c3.18143,0.05995 4.23869,4.1751 4.38951,5.9048c0.42334,4.85553 -0.49359,7.86968 -2.62972,8.43062c-2.45604,0.64496 -12.77982,0.29938 -12.77982,0.29938c0,0 3.21316,2.3199 4.55575,4.58742c1.25207,2.11461 -3.50127,6.34426 -4.95931,7.53301c-1.14171,0.93084 -3.22069,1.81501 -4.20877,1.37007c-1.48329,-0.66793 -21.12888,-12.10706 -20.90404,-21.3311c0.22036,-9.04002 19.77698,-19.26214 21.46173,-20.01231zM222.00697,179.34508c-0.0401,8.4946 17.55405,19.04755 18.72896,19.012c2.2267,-0.06737 6.69108,-5.63339 6.69108,-5.63339c0,0 -8.24818,-6.90798 -7.27476,-7.57808c1.50454,-1.03569 13.91627,-0.19175 16.14043,-0.45005c2.37407,-0.27575 1.54995,-8.72644 -0.09894,-9.75881c-1.13387,-0.70992 -15.18251,0.04953 -15.91439,-0.90127c-1.0599,-1.37694 7.11939,-5.43504 7.11939,-5.43504c0,0 -4.11586,-6.3283 -5.68315,-6.74097c-1.70664,-0.44935 -19.67057,9.42171 -19.70865,17.48562z" data-paper-data="{&quot;index&quot;:null}" fill="#83427a" stroke="#1542b7"/></g></g></svg>